<svg width="153" height="152" viewBox="0 0 153 152" fill="none" xmlns="http://www.w3.org/2000/svg">
<path d="M75.1661 0C55.0827 0.220978 35.9032 8.38257 21.8189 22.7013C7.73462 37.0199 -0.109339 56.3315 0.00115165 76.4158C0.111642 96.5001 8.1676 115.724 22.4086 129.887C36.6496 144.05 55.9177 152 76.0023 152C96.0869 152 115.355 144.05 129.596 129.887C143.837 115.724 151.893 96.5001 152.003 76.4158C152.114 56.3315 144.27 37.0199 130.186 22.7013C116.101 8.38257 96.9219 0.220978 76.8385 0L75.1661 0ZM76.8385 13.3793C93.3733 13.6001 109.15 20.3518 120.725 32.1612C132.3 43.9706 138.734 59.879 138.624 76.4148C138.514 92.9507 131.867 108.772 120.135 120.425C108.404 132.079 92.5385 138.62 76.0023 138.62C59.4661 138.62 43.601 132.079 31.8692 120.425C20.1373 108.772 13.4911 92.9507 13.3806 76.4148C13.2702 59.879 19.7047 43.9706 31.2799 32.1612C42.8551 20.3518 58.6313 13.6001 75.1661 13.3793H76.8385Z" fill="white"/>
<path d="M40.8854 92.8878L61.2321 72.5411V108.17H40.8854V92.8878ZM66.3866 77.6052V108.17H86.7333V77.6052L76.4243 87.8238L66.3866 77.6052ZM91.7974 108.17H112.144V52.1944L91.7974 72.5411V108.17ZM101.926 31.8477L107.713 37.6352L76.5147 68.9239L61.2321 53.7317L35.8213 79.1425V86.3769L61.2321 60.9661L76.5147 76.1583L111.421 41.2524L117.208 47.0399V31.8477H101.926Z" fill="white"/>
</svg>
