<svg width="49" height="35" viewBox="0 0 49 35" fill="none" xmlns="http://www.w3.org/2000/svg">
<path d="M41.6096 4.42324C41.6096 4.42324 36.588 0.50597 30.6597 0.0585938L30.1254 1.12466C35.4842 2.43296 37.9436 4.30321 40.5146 6.60556C36.0832 4.35122 31.7109 2.24092 24.0897 2.24092C16.4687 2.24092 12.0964 4.35122 7.66492 6.60556C10.236 4.30321 13.1618 2.22346 18.0542 1.12466L17.5198 0.0585938C11.3003 0.642365 6.56994 4.42324 6.56994 4.42324C6.56994 4.42324 0.962492 12.5262 0 28.4287C5.65014 34.9245 14.2348 34.9757 14.2348 34.9757L16.0306 32.5927C12.9822 31.5365 9.54393 29.652 6.56994 26.2465C10.1155 28.9198 15.4667 31.7022 24.0897 31.7022C32.7128 31.7022 38.064 28.9198 41.6096 26.2465C38.6367 29.652 35.1985 31.5365 32.1489 32.5927L33.9447 34.9757C33.9447 34.9757 42.5294 34.9245 48.1796 28.4287C47.2171 12.5262 41.6096 4.42324 41.6096 4.42324ZM16.9724 24.0642C14.8547 24.0642 13.1399 22.111 13.1399 19.6994C13.1399 17.288 14.8547 15.3349 16.9724 15.3349C19.0901 15.3349 20.8048 17.288 20.8048 19.6994C20.8048 22.111 19.0901 24.0642 16.9724 24.0642ZM31.2072 24.0642C29.0895 24.0642 27.3747 22.111 27.3747 19.6994C27.3747 17.288 29.0895 15.3349 31.2072 15.3349C33.3249 15.3349 35.0397 17.288 35.0397 19.6994C35.0397 22.111 33.3249 24.0642 31.2072 24.0642Z" fill="white"/>
</svg>
