<svg width="42" height="42" viewBox="0 0 42 42" fill="none" xmlns="http://www.w3.org/2000/svg">
<path d="M20.9671 0.192505C9.38977 0.192505 0 9.56849 0 21.1327C0 30.3848 6.00708 38.2339 14.3397 41.0033C15.3864 41.1969 15.7254 40.5478 15.7254 39.9963V36.098C9.89302 37.3649 8.67863 33.6271 8.67863 33.6271C7.72463 31.2067 6.34954 30.5628 6.34954 30.5628C4.44677 29.2628 6.49456 29.2907 6.49456 29.2907C8.60001 29.4372 9.70777 31.4493 9.70777 31.4493C11.5773 34.6497 14.6123 33.7247 15.8092 33.1891C15.9962 31.8367 16.5396 30.9119 17.1406 30.39C12.4842 29.8578 7.58834 28.0622 7.58834 20.0404C7.58834 17.7526 8.40781 15.8854 9.74796 14.4196C9.5313 13.8909 8.81317 11.7602 9.95234 8.87746C9.95234 8.87746 11.7136 8.31557 15.72 11.0239C17.3922 10.5597 19.1849 10.3275 20.9671 10.3188C22.7493 10.3275 24.5437 10.5597 26.2194 11.0239C30.2223 8.31557 31.9801 8.87746 31.9801 8.87746C33.121 11.7619 32.4029 13.8926 32.1863 14.4196C33.5317 15.8854 34.3442 17.7543 34.3442 20.0404C34.3442 28.0831 29.4395 29.8543 24.7709 30.3726C25.5222 31.0217 26.2089 32.2956 26.2089 34.2501V39.9963C26.2089 40.553 26.5443 41.2074 27.6085 41.0014C35.9341 38.2287 41.9342 30.3813 41.9342 21.1327C41.9342 9.56849 32.5462 0.192505 20.9671 0.192505Z" fill="white"/>
</svg>
