<svg width="45" height="38" viewBox="0 0 45 38" fill="none" xmlns="http://www.w3.org/2000/svg">
<path d="M44.0847 4.8635C43.7898 5.48604 43.2409 6.2724 42.4383 7.22254C41.6355 8.17267 40.6444 9.00819 39.4648 9.72901C39.4976 9.99117 39.5223 10.2369 39.5386 10.4662C39.6658 13.9974 38.8199 17.6611 37.6465 20.7133C35.3717 26.3883 31.8862 30.9555 26.9078 34.0567C21.7164 37.0345 15.6702 37.6679 10.0997 37.1284C6.40146 36.7036 2.7565 35.496 0 33.2212C5.04156 33.8238 9.74657 32.1088 13.4662 29.3386C9.33431 29.4431 6.33217 26.4541 4.91471 22.9987C5.55367 23.166 6.22211 23.1459 6.83143 23.097C7.58147 23.0265 8.29343 22.9561 8.9939 22.8021C6.35921 21.952 4.05388 20.3894 2.85055 18.0349C2.14472 16.5429 1.82603 15.1222 1.81849 13.5133C3.05304 14.1633 4.53807 14.7968 5.89768 14.742C3.84436 13.0026 2.19824 10.7796 1.89222 8.22999C1.69902 6.10415 2.23098 4.16362 2.99805 2.35696C6.06954 5.73255 9.51578 8.51052 13.4909 10.2204C16.2094 11.3337 18.9201 11.929 21.723 11.9406C21.3995 9.43709 21.651 7.01594 22.8288 4.9617C24.2149 2.75313 26.2372 1.47173 28.5053 0.83335C31.7506 0.00117803 34.9158 1.17666 36.9094 3.43813C39.0593 3.20591 41.1187 2.25214 42.7578 1.27567C42.0614 3.38475 40.7052 5.48179 38.7278 6.48523C40.6105 6.13666 42.4071 5.57932 44.0847 4.8635Z" fill="white"/>
</svg>
