<svg width="549" height="63" viewBox="0 0 549 63" fill="none" xmlns="http://www.w3.org/2000/svg">
<path d="M0.840088 32.1999C0.840088 28.7866 1.42675 25.4266 2.60009 22.1199C3.82675 18.7599 5.58675 15.7199 7.88009 12.9999C10.1734 10.2266 12.9734 8.01322 16.2801 6.35988C19.5868 4.70655 23.3734 3.87988 27.6401 3.87988C32.7068 3.87988 37.0001 5.05322 40.5201 7.39989C44.0401 9.69322 46.6534 12.6532 48.3601 16.2799L46.8401 16.7599C45.4001 13.9866 43.6134 11.7732 41.4801 10.1199C39.3468 8.46655 37.0534 7.29322 34.6001 6.59989C32.2001 5.85322 29.7734 5.47989 27.3201 5.47989C23.3734 5.47989 19.8534 6.25322 16.7601 7.79988C13.6668 9.34655 11.0534 11.4266 8.92009 14.0399C6.78675 16.6532 5.16009 19.5599 4.04009 22.7599C2.97342 25.9066 2.44009 29.1332 2.44009 32.4399C2.44009 36.0666 3.08009 39.5332 4.36009 42.8399C5.64009 46.0932 7.42676 48.9999 9.72009 51.5599C12.0134 54.1199 14.6801 56.1466 17.7201 57.6399C20.7601 59.1332 24.0401 59.8799 27.5601 59.8799C30.0668 59.8799 32.6268 59.4532 35.2401 58.5999C37.8534 57.7466 40.3068 56.4399 42.6001 54.6799C44.8934 52.9199 46.7601 50.6532 48.2001 47.8799L49.7201 48.2799C48.4401 51.1066 46.5734 53.5066 44.1201 55.4799C41.6668 57.4532 38.9468 58.9466 35.9601 59.9599C33.0268 60.9732 30.1201 61.4799 27.2401 61.4799C23.4001 61.4799 19.8534 60.6532 16.6001 58.9999C13.4001 57.2932 10.6001 55.0532 8.20009 52.2799C5.85342 49.4532 4.04009 46.3066 2.76009 42.8399C1.48009 39.3199 0.840088 35.7732 0.840088 32.1999Z" fill="white"/>
<path d="M138.52 7.3202V61.0002H136.92V4.2002H138.12L181.56 58.6802V4.2002H183.16V61.0002H181.32L138.52 7.3202Z" fill="white"/>
<path d="M242.869 10.6002H223.269V61.0002H216.069V10.6002H196.469V4.2002H242.869V10.6002Z" fill="white"/>
<path d="M255.05 61.0002V4.2002H279.37C281.877 4.2002 284.17 4.73353 286.25 5.80019C288.33 6.81353 290.143 8.2002 291.69 9.9602C293.237 11.6669 294.437 13.6135 295.29 15.8002C296.143 17.9335 296.57 20.1202 296.57 22.3602C296.57 24.9735 296.063 27.4535 295.05 29.8002C294.09 32.1469 292.703 34.1469 290.89 35.8002C289.13 37.4535 287.05 38.6002 284.65 39.2402L298.41 61.0002H290.25L277.29 40.6002H262.25V61.0002H255.05ZM262.25 34.2002H279.45C281.423 34.2002 283.13 33.6669 284.57 32.6002C286.063 31.4802 287.21 30.0135 288.01 28.2002C288.863 26.3869 289.29 24.4402 289.29 22.3602C289.29 20.2269 288.81 18.2802 287.85 16.5202C286.89 14.7069 285.637 13.2669 284.09 12.2002C282.543 11.1335 280.837 10.6002 278.97 10.6002H262.25V34.2002Z" fill="white"/>
<path d="M311.628 61.0002V4.2002H318.828V61.0002H311.628Z" fill="white"/>
<path d="M380.009 46.3602C380.009 49.2935 379.263 51.8535 377.769 54.0402C376.276 56.2269 374.249 57.9335 371.689 59.1602C369.183 60.3869 366.409 61.0002 363.369 61.0002H336.409V4.2002H364.649C367.316 4.2002 369.609 4.9202 371.529 6.3602C373.503 7.74686 374.996 9.5602 376.009 11.8002C377.076 13.9869 377.609 16.2802 377.609 18.6802C377.609 21.4535 376.889 24.0669 375.449 26.5202C374.063 28.9202 372.063 30.7069 369.449 31.8802C372.703 32.8402 375.263 34.6269 377.129 37.2402C379.049 39.8002 380.009 42.8402 380.009 46.3602ZM343.609 10.4402V29.4002H361.689C364.196 29.4002 366.276 28.4935 367.929 26.6802C369.636 24.8135 370.489 22.5735 370.489 19.9602C370.489 17.2935 369.689 15.0535 368.089 13.2402C366.543 11.3735 364.569 10.4402 362.169 10.4402H343.609ZM372.729 45.0802C372.729 43.3202 372.329 41.6935 371.529 40.2002C370.783 38.7069 369.743 37.5069 368.409 36.6002C367.129 35.6935 365.636 35.2402 363.929 35.2402H343.609V54.7602H363.369C365.129 54.7602 366.703 54.3069 368.089 53.4002C369.529 52.4935 370.649 51.3202 371.449 49.8802C372.303 48.3869 372.729 46.7869 372.729 45.0802Z" fill="white"/>
<path d="M417.601 61.4002C413.121 61.4002 409.361 60.6002 406.321 59.0002C403.335 57.3469 400.961 55.1335 399.201 52.3602C397.441 49.5869 396.188 46.4935 395.441 43.0802C394.694 39.6669 394.321 36.1735 394.321 32.6002V4.2002H395.921V32.6002C395.921 36.0135 396.268 39.3469 396.961 42.6002C397.655 45.8535 398.801 48.7869 400.401 51.4002C402.055 53.9602 404.268 56.0135 407.041 57.5602C409.815 59.0535 413.308 59.8002 417.521 59.8002C421.788 59.8002 425.334 59.0269 428.161 57.4802C430.988 55.8802 433.201 53.7735 434.801 51.1602C436.401 48.5469 437.521 45.6402 438.161 42.4402C438.854 39.1869 439.201 35.9069 439.201 32.6002V4.2002H440.801V32.6002C440.801 36.3335 440.401 39.9335 439.601 43.4002C438.801 46.8669 437.495 49.9602 435.681 52.6802C433.921 55.3469 431.548 57.4802 428.561 59.0802C425.628 60.6269 421.975 61.4002 417.601 61.4002Z" fill="white"/>
<path d="M498.31 5.80019H476.55V61.0002H474.95V5.80019H453.19V4.2002H498.31V5.80019Z" fill="white"/>
<path d="M548.919 59.4002V61.0002H511.639V4.2002H548.199V5.80019H513.239V31.1602H543.879V32.7602H513.239V59.4002H548.919Z" fill="white"/>
<path fill-rule="evenodd" clip-rule="evenodd" d="M116.191 28.2792C115.831 28.5427 115.393 28.6814 114.922 28.6915V28.6942H105.792V54.0372C105.792 54.8274 105.478 55.4922 104.909 55.91C104.554 56.1699 104.117 56.3109 103.643 56.3223V56.3246H103.582H83.1636V56.3178C83.1095 56.3214 83.0559 56.3246 83.0024 56.3246C82.5044 56.3246 82.0455 56.1809 81.6754 55.91C81.1065 55.4922 80.7927 54.8274 80.7927 54.0372V28.6942H71.5138V28.6818C71.0997 28.6479 70.714 28.5152 70.3929 28.2792C69.824 27.8618 69.5103 27.197 69.5103 26.4073V18.9862C69.5103 18.2498 69.7883 17.4771 70.2935 16.8099C70.7933 16.1497 71.4652 15.6603 72.1853 15.4311L93.2917 8.76172L93.3806 8.78973L114.398 15.4307C115.118 15.6603 115.791 16.1497 116.29 16.8099C116.796 17.4771 117.073 18.2498 117.073 18.9862V26.4073C117.074 27.1965 116.76 27.8618 116.191 28.2792ZM110.201 27.3558L105.792 25.9637V27.3558H110.201ZM80.7927 27.3558V25.9637L76.3834 27.3558H80.7927ZM92.6216 18.612L92.6188 18.5496V10.3692L72.5866 16.6993C71.6553 16.9954 70.8382 18.0643 70.8382 18.9858V26.4068C70.8382 26.7613 70.9586 27.045 71.1771 27.2048C71.2894 27.2874 71.4263 27.3366 71.5788 27.3554H71.8642C71.9673 27.3435 72.0745 27.3214 72.1858 27.2861L82.1201 24.1492V54.0372C82.1201 54.3917 82.2411 54.6763 82.4591 54.8361C82.706 55.0175 83.0646 55.0459 83.4691 54.9174L92.6271 52.0395L92.6284 18.7498C92.6284 18.7057 92.6262 18.6607 92.6216 18.612ZM93.2922 53.2255L87.6878 54.9863H98.8974L93.2922 53.2255ZM115.746 18.9862C115.746 18.0643 114.929 16.9954 113.998 16.6993L93.9655 10.3696V18.5569L93.9628 18.6125C93.9582 18.6607 93.9559 18.7062 93.9559 18.7507L93.9573 52.0404L103.114 54.9178C103.223 54.9527 103.329 54.9748 103.43 54.9867H103.643V54.9945C103.828 54.9853 103.993 54.9339 104.125 54.837C104.344 54.6768 104.464 54.3926 104.464 54.0381V28.6952H104.459V27.3568H104.464V24.1506L114.398 27.287C114.51 27.3228 114.618 27.3448 114.721 27.3568H114.922V27.3637C115.109 27.3554 115.275 27.3035 115.408 27.2062C115.627 27.0459 115.747 26.7626 115.747 26.4082L115.746 18.9862Z" fill="#F12EA6"/>
<circle cx="93.5" cy="31.5" r="30.75" stroke="#F12EA6" stroke-width="1.5"/>
</svg>
