<svg width="63" height="93" viewBox="0 0 63 93" fill="none" xmlns="http://www.w3.org/2000/svg">
<path fill-rule="evenodd" clip-rule="evenodd" d="M26.6719 0C58.7691 18.6005 41.0951 43.5361 41.0951 43.5361C33.7821 57.2308 47.1895 60.7057 47.1895 60.7057C61.0034 63.5676 60.5978 48.033 60.5978 48.033C73.1931 88.5031 32.1571 93 32.1571 93C29.9228 78.0793 23.2182 79.1013 20.171 68.6775C17.1238 58.2536 19.5618 51.9168 19.5618 51.9168C3.51272 68.2685 12.8581 86.6641 12.8581 86.6641C12.8581 86.6641 -4.81599 73.9914 1.27845 52.9388C4.14227 43.0464 18.047 32.8071 26.619 20.7234C34.1507 10.1089 26.6719 0 26.6719 0Z" fill="#444049"/>
</svg>
