<svg width="78" height="74" viewBox="0 0 78 74" fill="none" xmlns="http://www.w3.org/2000/svg">
<path fill-rule="evenodd" clip-rule="evenodd" d="M2.82421 0.65094H74.5606C76.1205 0.65094 77.3848 2.18458 77.3848 4.07528V8.1848C77.3848 10.0755 76.1205 11.6083 74.5606 11.6083H2.82421C1.26427 11.6083 0 10.0755 0 8.1848V4.07528C0 2.18458 1.26515 0.65094 2.82421 0.65094Z" fill="#444049"/>
<path fill-rule="evenodd" clip-rule="evenodd" d="M2.82421 16.4022H74.5606C76.1205 16.4022 77.3848 17.9358 77.3848 19.8265V23.9352C77.3848 25.8267 76.1205 27.3595 74.5606 27.3595H2.82421C1.26427 27.3595 0 25.8267 0 23.9352V19.8265C0 17.9349 1.26515 16.4022 2.82421 16.4022Z" fill="#444049"/>
<path fill-rule="evenodd" clip-rule="evenodd" d="M2.82421 32.1525H74.5606C76.1205 32.1525 77.3848 33.6861 77.3848 35.5768V39.6855C77.3848 41.5771 76.1205 43.1098 74.5606 43.1098H2.82421C1.26427 43.1098 0 41.5771 0 39.6855V35.5768C0 33.6861 1.26515 32.1525 2.82421 32.1525Z" fill="#444049"/>
<path fill-rule="evenodd" clip-rule="evenodd" d="M2.82421 47.2194H74.5606C76.1205 47.2194 77.3848 48.7521 77.3848 50.6428V54.7524C77.3848 56.6431 76.1205 58.1767 74.5606 58.1767H2.82421C1.26427 58.1767 0 56.6431 0 54.7524V50.6428C0 48.7521 1.26515 47.2194 2.82421 47.2194Z" fill="#444049"/>
<path fill-rule="evenodd" clip-rule="evenodd" d="M2.82421 62.9697H74.5606C76.1205 62.9697 77.3848 64.5033 77.3848 66.394V70.5036C77.3848 72.3943 76.1205 73.9279 74.5606 73.9279H2.82421C1.26427 73.9279 0 72.3943 0 70.5036V66.394C0 64.5024 1.26515 62.9697 2.82421 62.9697Z" fill="#444049"/>
</svg>
