<svg width="433" height="434" viewBox="0 0 433 434" fill="none" xmlns="http://www.w3.org/2000/svg">
<path fill-rule="evenodd" clip-rule="evenodd" d="M216.5 434C96.9787 434 0 336.869 0 216.954C0 97.0389 96.8867 0 216.5 0C336.113 0 433 97.1311 433 217.046C433 336.961 336.021 434 216.5 434ZM374.205 115.303C370.801 110.783 366.201 107.37 361.232 105.802L217.144 60.3265L216.5 60.142L71.768 105.894C66.7994 107.462 62.1989 110.783 58.7945 115.395C55.2981 120.007 53.4579 125.265 53.4579 130.338V181.256C53.4579 186.698 55.5742 191.218 59.5306 194.078C61.7388 195.738 64.4071 196.661 67.2595 196.845V196.937H130.931V370.722C130.931 376.164 133.047 380.684 137.003 383.543C139.579 385.388 142.708 386.403 146.112 386.403C146.48 386.403 146.848 386.403 147.216 386.403H287.256H287.716C290.936 386.311 293.973 385.388 296.365 383.543C300.229 380.684 302.438 376.164 302.438 370.722V196.845H365.004C368.225 196.753 371.261 195.83 373.745 193.986C377.61 191.126 379.818 186.606 379.818 181.164V130.246C379.634 125.173 377.702 119.915 374.205 115.303ZM368.225 186.606C367.305 187.252 366.201 187.621 364.912 187.713V187.621H363.532C362.796 187.529 362.152 187.344 361.324 187.16L293.236 165.667V187.621V196.845V370.63C293.236 373.028 292.408 374.965 290.936 376.072C290.016 376.718 288.912 377.086 287.624 377.179V377.086H286.152C285.508 376.994 284.772 376.81 284.035 376.625L221.1 356.978V128.678C221.1 128.401 221.101 128.032 221.193 127.756V127.387V71.1188L358.564 114.565C364.912 116.594 370.525 123.881 370.525 130.246V181.164C370.525 183.562 369.697 185.499 368.225 186.606ZM178.132 377.179L216.592 365.095L255.052 377.179H178.132ZM149.149 376.718C146.388 377.64 143.904 377.363 142.248 376.164C140.776 375.057 139.948 373.12 139.948 370.722V165.667L71.86 187.16C71.1239 187.436 70.3878 187.529 69.7437 187.621H67.5355C66.5234 187.529 65.6033 187.16 64.8672 186.606C63.395 185.499 62.5669 183.562 62.5669 181.164V130.246C62.5669 123.881 68.1796 116.594 74.5283 114.565L211.899 71.1188V127.294V127.756C211.899 128.125 211.991 128.401 211.991 128.678V356.978L149.149 376.718ZM130.839 187.621H100.567L130.839 178.028V187.621ZM332.525 187.621H302.254V178.028L332.525 187.621Z" fill="#F12EA6"/>
</svg>
