<svg width="274" height="274" viewBox="0 0 274 274" fill="none" xmlns="http://www.w3.org/2000/svg">
<path fill-rule="evenodd" clip-rule="evenodd" d="M268.92 112.436C266.846 113.954 264.318 114.753 261.606 114.811V114.827H209.01V260.823C209.01 265.375 207.202 269.205 203.922 271.612C201.88 273.109 199.362 273.921 196.631 273.987V274H196.277H78.654V273.96C78.3427 273.982 78.0339 274 77.7252 274C74.8568 274 72.2128 273.172 70.0806 271.612C66.8033 269.205 64.9957 265.375 64.9957 260.823V114.827H11.542V114.756C9.15658 114.56 6.93471 113.796 5.08493 112.436C1.80757 110.032 0 106.202 0 101.652V58.9014C0 54.6588 1.60176 50.2073 4.51233 46.3641C7.39123 42.5606 11.2623 39.741 15.4104 38.4212L137 0L137.512 0.161357L258.587 38.4185C262.738 39.741 266.611 42.5606 269.49 46.3641C272.401 50.2073 274 54.6588 274 58.9014V101.652C274.003 106.199 272.198 110.032 268.92 112.436ZM234.41 107.117L209.01 99.0973V107.117H234.41ZM64.9957 107.117V99.0973L39.5949 107.117H64.9957ZM133.139 56.7457L133.124 56.386V9.26014L17.722 45.7267C12.3574 47.4327 7.64982 53.5902 7.64982 58.8987V101.65C7.64982 103.692 8.34383 105.326 9.60253 106.247C10.249 106.723 11.038 107.006 11.9167 107.114H13.5607C14.1544 107.045 14.7719 106.919 15.4131 106.715L72.6429 88.6443V260.823C72.6429 262.865 73.3395 264.504 74.5956 265.425C76.0179 266.47 78.084 266.634 80.4141 265.893L133.171 249.314L133.179 57.5392C133.179 57.2852 133.166 57.0261 133.139 56.7457ZM137.003 256.146L104.717 266.29H169.293L137.003 256.146ZM266.355 58.9014C266.355 53.5902 261.648 47.4327 256.283 45.7267L140.882 9.26276V56.4283L140.866 56.7483C140.839 57.026 140.826 57.2879 140.826 57.5445L140.834 249.32L193.583 265.896C194.214 266.097 194.821 266.224 195.404 266.292H196.631V266.337C197.7 266.285 198.65 265.988 199.407 265.43C200.668 264.507 201.36 262.87 201.36 260.828V114.832H201.333V107.122H201.36V88.6522L258.59 106.72C259.233 106.926 259.853 107.053 260.45 107.122H261.606V107.162C262.685 107.114 263.64 106.815 264.405 106.255C265.667 105.332 266.358 103.7 266.358 101.658L266.355 58.9014Z" fill="white" fill-opacity="0.1"/>
</svg>
