<svg width="346" height="345" viewBox="0 0 346 345" fill="none" xmlns="http://www.w3.org/2000/svg">
<path d="M346 172.998C346 262.103 278.635 335.473 192.055 344.959V312.121C260.586 302.822 313.406 244.079 313.406 172.998C313.406 143.909 304.559 116.886 289.41 94.4721H327.192C339.218 118.038 346 144.726 346 172.998Z" fill="#DB3BAE"/>
<path d="M56.59 94.4721C41.4407 116.886 32.5942 143.909 32.5942 172.998C32.5942 244.209 85.6075 303.037 154.321 312.171V345C67.5606 335.686 0 262.232 0 172.998C0 144.726 6.78194 118.038 18.8077 94.4721H56.59Z" fill="#DB3BAE"/>
<path d="M257.755 61.0508C234.202 43.1912 204.839 32.5939 173 32.5939C141.161 32.5939 111.798 43.1912 88.2446 61.0508H41.0995C72.8325 23.6995 120.149 0 173 0C225.851 0 273.168 23.6995 304.9 61.0508H257.755Z" fill="#DB3BAE"/>
<path d="M99.9302 94.4721H154.321V278.641C103.985 269.802 65.7359 225.867 65.7359 172.998C65.7359 141.99 78.8936 114.055 99.9302 94.4721Z" fill="#DB3BAE"/>
<path d="M192.055 278.574V94.4721H246.07C267.106 114.055 280.264 141.99 280.264 172.998C280.264 225.735 242.205 269.583 192.055 278.574Z" fill="#DB3BAE"/>
</svg>
