<svg width="69" height="69" viewBox="0 0 69 69" fill="none" xmlns="http://www.w3.org/2000/svg">
<path fill-rule="evenodd" clip-rule="evenodd" d="M59.3454 30.9722C58.954 31.2609 58.477 31.4127 57.9651 31.4238V31.4268H48.0403V59.1834C48.0403 60.0488 47.6992 60.777 47.0802 61.2346C46.6948 61.5192 46.2198 61.6736 45.7044 61.6861V61.6887H45.6377H23.4423V61.6811C23.3835 61.6851 23.3253 61.6887 23.267 61.6887C22.7258 61.6887 22.2268 61.5313 21.8245 61.2346C21.2061 60.777 20.865 60.0488 20.865 59.1834V31.4268H10.7783V31.4132C10.3282 31.376 9.90892 31.2307 9.55986 30.9722C8.94143 30.5151 8.60034 29.787 8.60034 28.922V20.7942C8.60034 19.9876 8.90259 19.1413 9.45181 18.4107C9.99506 17.6875 10.7255 17.1515 11.5083 16.9006L34.4521 9.59595L34.5487 9.62662L57.3955 16.9001C58.1787 17.1515 58.9097 17.6875 59.4529 18.4107C60.0022 19.1413 60.3039 19.9876 60.3039 20.7942V28.922C60.3044 29.7865 59.9638 30.5151 59.3454 30.9722ZM52.8334 29.9609L48.0403 28.4363V29.9609H52.8334ZM20.865 29.9609V28.4363L16.0719 29.9609H20.865ZM33.7236 20.3844L33.7207 20.316V11.3565L11.9445 18.2895C10.9322 18.6138 10.0439 19.7845 10.0439 20.7937V28.9215C10.0439 29.3097 10.1748 29.6205 10.4123 29.7955C10.5343 29.886 10.6832 29.9398 10.849 29.9604H11.1592C11.2713 29.9474 11.3878 29.9232 11.5088 29.8845L22.308 26.4489V59.1834C22.308 59.5716 22.4394 59.8834 22.6765 60.0584C22.9448 60.257 23.3347 60.2882 23.7744 60.1474L33.7296 56.9954L33.7311 20.5353C33.7311 20.487 33.7286 20.4377 33.7236 20.3844ZM34.4526 58.2943L28.3604 60.2228H40.5458L34.4526 58.2943ZM58.8614 20.7942C58.8614 19.7845 57.9731 18.6138 56.9608 18.2895L35.1846 11.357V20.3241L35.1816 20.3849C35.1766 20.4377 35.1741 20.4875 35.1741 20.5363L35.1756 56.9964L45.1293 60.1479C45.2483 60.1861 45.3629 60.2102 45.4729 60.2233H45.7044V60.2319C45.9061 60.2218 46.0854 60.1655 46.2283 60.0594C46.4663 59.8839 46.5968 59.5726 46.5968 59.1844V31.4278H46.5918V29.962H46.5968V26.4504L57.396 29.8855C57.5175 29.9247 57.6345 29.9489 57.747 29.962H57.9651V29.9695C58.1688 29.9604 58.349 29.9036 58.4934 29.797C58.7314 29.6215 58.8619 29.3112 58.8619 28.923L58.8614 20.7942Z" fill="#009FFF"/>
<path fill-rule="evenodd" clip-rule="evenodd" d="M34.6788 67.16C52.5817 67.16 67.0948 52.5376 67.0948 34.5C67.0948 16.4624 52.5817 1.84 34.6788 1.84C16.7759 1.84 2.26278 16.4624 2.26278 34.5C2.26278 52.5376 16.7759 67.16 34.6788 67.16ZM34.6788 69C53.5903 69 68.9211 53.5538 68.9211 34.5C68.9211 15.4462 53.5903 0 34.6788 0C15.7673 0 0.436523 15.4462 0.436523 34.5C0.436523 53.5538 15.7673 69 34.6788 69Z" fill="#009FFF"/>
</svg>
