<svg width="240" height="239" viewBox="0 0 240 239" fill="none" xmlns="http://www.w3.org/2000/svg">
<path fill-rule="evenodd" clip-rule="evenodd" d="M206.346 107.278C204.981 108.277 203.317 108.803 201.532 108.842V108.852H166.916V204.991C166.916 207.989 165.726 210.511 163.567 212.096C162.223 213.082 160.566 213.616 158.769 213.66V213.669H81.1231V213.643C80.9181 213.656 80.7149 213.669 80.5117 213.669C78.624 213.669 76.8838 213.123 75.4805 212.096C73.3236 210.511 72.1339 207.989 72.1339 204.991V108.852H36.9537V108.805C35.3838 108.676 33.9215 108.173 32.704 107.278C30.5471 105.694 29.3574 103.172 29.3574 100.176V72.0246C29.3574 69.2308 30.4116 66.2994 32.3272 63.7687C34.2219 61.264 36.7696 59.4073 39.4997 58.5382L119.523 33.2376L199.545 58.5365C202.277 59.4073 204.826 61.264 206.721 63.7687C208.636 66.2994 209.689 69.2308 209.689 72.0246V100.176C209.691 103.17 208.503 105.694 206.346 107.278ZM183.633 103.775L166.916 98.4939V103.775H183.633ZM72.1339 103.775V98.4939L55.4165 103.775H72.1339ZM116.982 70.605L116.972 70.3682V39.3354L41.0211 63.3489C37.4904 64.4723 34.3921 68.5271 34.3921 72.0228V100.175C34.3921 101.519 34.8489 102.596 35.6773 103.202C36.1028 103.515 36.622 103.702 37.2003 103.773H38.2823C38.6731 103.728 39.0794 103.644 39.5015 103.51L77.1669 91.6105V204.991C77.1669 206.336 77.6253 207.416 78.452 208.022C79.3881 208.71 80.7479 208.818 82.2814 208.33L117.003 197.413L117.008 71.1275C117.008 70.9603 117 70.7897 116.982 70.605ZM119.525 201.912L98.2764 208.591H140.777L119.525 201.912ZM204.658 72.0246C204.658 68.5271 201.559 64.4723 198.029 63.3489L122.078 39.3372V70.396L122.067 70.6068C122.05 70.7896 122.041 70.9621 122.041 71.131L122.047 197.416L156.763 208.332C157.178 208.464 157.578 208.548 157.961 208.593H158.769V208.623C159.472 208.588 160.097 208.393 160.596 208.025C161.426 207.418 161.881 206.339 161.881 204.995V108.856H161.864V103.778H161.881V91.6157L199.546 103.514C199.97 103.649 200.378 103.733 200.771 103.778H201.532V103.804C202.242 103.773 202.871 103.576 203.374 103.207C204.204 102.599 204.659 101.525 204.659 100.18L204.658 72.0246Z" fill="#F12EA6"/>
<path fill-rule="evenodd" clip-rule="evenodd" d="M120.313 232.902C182.906 232.902 233.654 182.132 233.654 119.496C233.654 56.8603 182.906 6.0897 120.313 6.0897C57.7204 6.0897 6.97306 56.8603 6.97306 119.496C6.97306 182.132 57.7204 232.902 120.313 232.902ZM120.313 238.992C186.273 238.992 239.743 185.492 239.743 119.496C239.743 53.5002 186.273 0 120.313 0C54.354 0 0.883362 53.5002 0.883362 119.496C0.883362 185.492 54.354 238.992 120.313 238.992Z" fill="#F12EA6"/>
</svg>
